<svg xmlns="http://www.w3.org/2000/svg" xmlns:xlink="http://www.w3.org/1999/xlink" width="385.413" height="438.512" viewBox="0 0 385.413 438.512">
  <defs>
    <linearGradient id="linear-gradient" x1="0.5" x2="0.5" y2="1" gradientUnits="objectBoundingBox">
      <stop offset="0" stop-color="#928dab"/>
      <stop offset="1" stop-color="#232031"/>
    </linearGradient>
  </defs>
  <g id="Group_4511" data-name="Group 4511" transform="translate(7352.841 1603)">
    <path id="Union_3" data-name="Union 3" d="M192.38,438.511a3.337,3.337,0,0,1-3.214-2.45l-56.02-200.035L.78,5.792.711,5.723.73,5.7.361,5.063A3.344,3.344,0,0,1,.024,3.81,3.357,3.357,0,0,1,4.214.163L192.6,62.782,380.988.163q.12-.032.24-.054a3.341,3.341,0,0,1,3.737,4.9L251.8,236.693l-55.818,199.35a3.355,3.355,0,0,1-3.214,2.468q-.075,0-.15,0t-.148,0Zm5.254-55.19,7.941-66.2-4.066,7.075Zm-15.017-5.794L170.905,301.7l-5.32-9.253Zm4.576-5.082-3.118-47.835-2.734-4.756Zm16.892-.643,16-79.924-4.735,8.238Zm-19.718-.514-6.371-57.252-3.379-5.878Zm11.742-5.679,2.369-36.139-2.369,4.121v32.018Zm-6.693-.295V333.9l-2.31-4.018Zm13.419-2.827,8.78-55.873-2.625,4.568Zm-26.156-.972-15.286-76.36-4.908-8.537Zm32.294-.47,20.223-85.02-4.916,8.553ZM166.6,330.753l-14.822-62.311-5.118-8.9Zm54.608-9.585,17.071-60.957-4.387,7.633Zm-31.8-.8V194.426L177.5,182.509l8.612,132.117Zm6.693-.221,3.363-5.85,8.668-132.259-12.031,12.031Zm-13.028-10.795-8.456-129.722-10-10,14.851,133.452Zm19.423-.331,5.109-8.888,16.025-133.594-12.624,12.624Zm-26.374-11.755L161.588,166.6l-10.45-10.45L171.76,289.674Zm34.9-3.069,3.494-6.079L235.484,154.7l-8.779,8.779Zm-42.973-10.977L147.929,152.941,135.087,140.1l26.349,131.622Zm50.2-1.6,5.956-10.361,26.353-131.645L238.7,151.477Zm-61.012-17.2L131.668,136.681l-11.117-11.117L151,253.578Zm71.163-.462,6.24-10.856L265.1,125.083,253.981,136.2Zm-82.1-18.56L116.936,121.948l-12.219-12.219,34.577,123.49Zm93.044-.475,6.272-10.911,34.8-124.255-11.7,11.7Zm19.786-34.421L366.562,23.619l-76.528,76.528Zm-133.355-.8-30.7-109.626L18.961,23.973Zm66.808-21.584,13.55-13.55-13.342-11.148L179.234,174.78Zm-15.253-15.253L190.7,161.686l-11.434-9.554-13.149,9.533Zm30.706-.2,13.149-13.149-12.851-9.106-13.455,11.262Zm-15.247-12.739,13.283-11.118-11.245-7.968-13.322,9.658Zm-28.592-.193,12.947-9.386-12.064-10.08L152.549,148.1Zm58.912-2.14,10.916-10.916-12.248-7.518-11.315,9.471Zm-43.726-8.869,13.134-9.521-12.045-8.534-13,8.106Zm28.816-1.7,11.168-9.347-10.929-6.708-11.318,8.2Zm-57.6-.891,12.313-7.679L147.8,125.839,136.257,131.8Zm85.372-1.41,13.068-13.068-11.327-5.841-13.77,11.526Zm-41.165-7.187,11.154-8.086L194.1,122.183l-11.158,6.959Zm-29.5-.576L178.1,129l-15.356-10.881L150.384,124.5Zm56.226-1.1,13.6-11.38-10.369-5.347-13.974,10.13Zm-87.269-6.064,11.3-5.838-13.66-11.413-10.41,4.483Zm116.765-.131,12.691-12.691-10.2-4.392-13.579,11.366Zm-42.718-1.919,13.778-9.989-11.454-5.907-14,8.73Zm-27.747-.3,10.976-6.845-15.371-9.434-10.746,5.551Zm-32.416-4.821,12.131-6.266L146.211,106.4l-11.543,4.971Zm89.209-.009,13.406-11.221-9.615-4.141-13.958,10.119Zm-43.274-3.6,13.779-8.593-15.138-7.806-13.771,7.114Zm30.437-3.018,13.762-9.976-10.822-4.661-14.177,8.842ZM119.459,115l10.145-4.369L112.628,96.452l-8.8,2.925Zm43.506-.016,10.54-5.445-14.262-8.754-10.148,4.37Zm102.8-.038,15.582-15.582-8.6-2.859-16.919,14.162Zm-12.695-5.467,16.688-13.968-8.5-2.825-17.584,12.748Zm-120.707-.036,11.286-4.86L125.926,92.03l-10.308,3.427Zm78.15-.662,13.954-8.7-14.62-6.3-14.2,7.334Zm-34.225-.68,13.518-6.983-14.26-7.354-13.291,5.724Zm64.524-3.9L258.13,91.649,248.3,88.38,230.232,99.647Zm-94.279-.859,9.915-4.27-18.17-11.152-9.2,3.057Zm46.195-3.731,13.935-7.2-13.987-6.024-13.943,6Zm34.508-1.257,17.759-11.075-13.721-4.562L212.928,92.2Zm-67.775-.579,13-5.6-18.417-9.5L141.6,86.817Zm-60.948-3.72,8.049-2.675L41.354,36.9Zm188.154-.008,56.388-56.388L278.806,91.437Zm-76.922-3.226,17.976-9.286L214.3,77.077l-18.24,7.855Zm-34.1-.018,13.639-5.874-18.3-7.883L157.6,81.5Zm100.169-.363,74.1-62.023L267.963,87.833Zm-166.265-.055,9.569-3.181L31.108,24.846Zm155.279-3.6,86.1-62.42L255.708,83.759Zm-142.554-.633,8.514-2.83L37.3,25.948Zm70.4-2.685,17.8-7.668L192.6,69.861l-17.794,5.917Zm59.728-.812L353.8,19.423,239.615,78.41Zm-118.287-.438,11.577-3.848L33.98,20.764Zm101.945-4.994L346.89,19.976l-123.307,53.1Zm-86.812-.036,12.454-4.14L37.48,19.553Zm70.508-5.383L331.587,23.648,203.246,66.321Zm-54.229-.028,16.427-5.46L54.276,23.868Z" transform="translate(-7352.841 -1603)" fill="url(#linear-gradient)"/>
  </g>
</svg>
